<?xml version="1.0" encoding="UTF-8"?>
<!DOCTYPE svg PUBLIC "-//W3C//DTD SVG 1.1//EN" "http://www.w3.org/Graphics/SVG/1.1/DTD/svg11.dtd">
<!-- Creator: CorelDRAW -->
<svg xmlns="http://www.w3.org/2000/svg" xml:space="preserve" width="89px" height="89px" version="1.1" style="shape-rendering:geometricPrecision; text-rendering:geometricPrecision; image-rendering:optimizeQuality; fill-rule:evenodd; clip-rule:evenodd"
viewBox="0 0 89 88.658"
 xmlns:xlink="http://www.w3.org/1999/xlink"
 xmlns:xodm="http://www.corel.com/coreldraw/odm/2003">
 <defs>
  <style type="text/css">
   <![CDATA[
    .fil0 {fill:#040404;fill-rule:nonzero}
    .fil1 {fill:white;fill-rule:nonzero}
   ]]>
  </style>
 </defs>
 <g id="Livello_x0020_1">
  <metadata id="CorelCorpID_0Corel-Layer"/>
  <g id="_2008807245008">
   <path class="fil0" d="M88.996 44.529c-0.317,20.993 -14.21,38.409 -34.284,43.256 -1.04,0.252 -1.774,0.342 -2.279,0.199 -0.795,-0.226 -1.013,-1.024 -0.934,-2.682 0.196,-4.101 0.052,-8.221 0.049,-12.33 -0.004,-4.113 0.135,-8.233 -0.057,-12.335 -0.109,-2.316 0.524,-3.013 2.915,-3.039 7.25,-0.072 7.25,-0.188 8.584,-7.257 0.075,-0.404 0.207,-0.795 0.32,-1.187 1.024,-3.529 0.203,-4.96 -3.944,-4.776 -8.801,0.385 -8.813,0.136 -7.645,-8.621 0.637,-4.798 2.467,-6.568 8.214,-6.338 3.951,0.158 4.637,-1.251 4.504,-4.772 -0.263,-7.024 -0.075,-7.032 -7.408,-7.163 -10.756,-0.196 -16.68,3.189 -18.846,10.854 -1.209,4.282 -1.077,8.7 -0.858,13.065 0.131,2.652 -0.818,3.153 -3.266,3.149 -8.131,-0.004 -7.939,0.102 -8.233,8.406 -0.132,3.748 0.889,4.945 4.73,4.776 6.701,-0.29 6.712,-0.046 6.712,6.813 0,6.99 -0.079,13.98 0.041,20.97 0.027,1.496 -0.15,2.249 -0.878,2.467l-0.003 0c-0.459,0.14 -1.13,0.064 -2.102,-0.162 -33.406,-7.837 -44.72,-48.257 -23.689,-72.199 12.078,-13.754 31.508,-19.355 48.871,-13.035 17.66,6.429 29.761,23.641 29.486,41.941z"/>
   <path class="fil1" d="M63.31 49.154c-0.113,0.392 -0.245,0.784 -0.321,1.187 -1.333,7.069 -1.333,7.186 -8.583,7.257 -2.391,0.026 -3.024,0.723 -2.915,3.039 0.192,4.102 0.053,8.222 0.057,12.335 0.003,4.109 0.147,8.229 -0.049,12.331 -0.079,1.657 0.139,2.455 0.933,2.681 -5.283,0.897 -10.714,0.901 -15.999,0 0.728,-0.218 0.904,-0.971 0.878,-2.467 -0.12,-6.99 -0.041,-13.98 -0.041,-20.97 0,-6.859 -0.012,-7.103 -6.712,-6.813 -3.841,0.169 -4.862,-1.029 -4.73,-4.776 0.294,-8.305 0.102,-8.41 8.233,-8.406 2.448,0.004 3.397,-0.497 3.265,-3.149 -0.218,-4.365 -0.35,-8.783 0.859,-13.065 2.165,-7.665 8.09,-11.05 18.846,-10.854 7.333,0.131 7.145,0.139 7.409,7.163 0.131,3.521 -0.554,4.93 -4.505,4.772 -5.747,-0.23 -7.577,1.54 -8.214,6.338 -1.168,8.757 -1.156,9.006 7.646,8.621 4.146,-0.184 4.967,1.247 3.943,4.776z"/>
  </g>
 </g>
</svg>
