<?xml version="1.0" encoding="UTF-8"?>
<!DOCTYPE svg PUBLIC "-//W3C//DTD SVG 1.1//EN" "http://www.w3.org/Graphics/SVG/1.1/DTD/svg11.dtd">
<!-- Creator: CorelDRAW -->
<svg xmlns="http://www.w3.org/2000/svg" xml:space="preserve" width="100px" height="100px" version="1.1" style="shape-rendering:geometricPrecision; text-rendering:geometricPrecision; image-rendering:optimizeQuality; fill-rule:evenodd; clip-rule:evenodd"
viewBox="0 0 100 100"
 xmlns:xlink="http://www.w3.org/1999/xlink"
 xmlns:xodm="http://www.corel.com/coreldraw/odm/2003">
 <defs>
  <style type="text/css">
   <![CDATA[
    .fil0 {fill:#040404;fill-rule:nonzero}
    .fil1 {fill:#060606;fill-rule:nonzero}
    .fil2 {fill:#0F0F0F;fill-rule:nonzero}
    .fil3 {fill:#2CD16A;fill-rule:nonzero}
    .fil4 {fill:#FAFAFA;fill-rule:nonzero}
    .fil5 {fill:#FDFDFD;fill-rule:nonzero}
    .fil6 {fill:white;fill-rule:nonzero}
   ]]>
  </style>
 </defs>
 <g id="Livello_x0020_1">
  <metadata id="CorelCorpID_0Corel-Layer"/>
  <path class="fil0" d="M-1108.368 684.818c-22.233,-14.627 -42.824,-28.174 -63.732,-41.929 -0.772,8.098 2.947,67.991 4.633,75.112 5.722,-9.789 11.243,-19.234 17.112,-29.273 1.525,2.349 2.617,3.892 3.566,5.519 4.324,7.408 8.626,14.827 12.888,22.27 1.044,1.822 2.244,3.405 4.528,2.274 2.388,-1.183 1.672,-3.143 0.702,-4.944 -0.914,-1.701 -1.908,-3.361 -2.869,-5.036 -4.42,-7.71 -8.841,-15.419 -13.758,-23.993l36.93 0zm-32.562 60.929c-10.969,0 -21.946,0.235 -32.907,-0.053 -17.682,-0.464 -31.5,-13.951 -31.802,-31.634 -0.381,-22.358 -0.326,-44.731 0.054,-67.09 0.269,-15.844 12.806,-29.612 28.658,-30.548 23.826,-1.408 47.754,-1.389 71.576,-0.057 17.343,0.97 29.089,14.102 29.574,32.339 0.577,21.704 0.616,43.449 -0.025,65.149 -0.562,18.988 -14.39,31.646 -33.509,31.936 -10.538,0.159 -21.08,0.028 -31.619,0.028l0 -0.07z"/>
  <path class="fil0" d="M-686.721 665.778c4.958,2.559 8.793,5.112 13.396,5.086 2.111,-0.012 6.315,2.058 5.605,-2.325 -0.623,-3.84 4.194,-10.02 -3.635,-11.489 -8.186,-1.535 -13.11,-6.862 -14.792,-14.353 -1.834,-8.167 -7.478,-3.1 -11.166,-3.903 -4.828,-1.052 -3.14,3.49 -3.163,5.749 -0.166,15.896 -0.014,31.795 -0.156,47.691 -0.068,7.648 -4.423,12.317 -11.022,12.4 -5.714,0.073 -10.487,-4.003 -11.138,-9.51 -0.803,-6.79 3.052,-11.587 10.312,-12.995 1.463,-0.284 3.997,0.621 3.843,-2.111 -0.224,-3.986 1.837,-8.963 -1.015,-11.69 -2.428,-2.322 -6.963,-0.471 -10.416,0.738 -1.803,0.631 -3.606,1.411 -5.214,2.43 -10.414,6.599 -14.463,19.439 -9.897,31.09 4.221,10.77 15.769,17.543 26.76,15.695 12.453,-2.093 21.258,-12.128 21.648,-25.149 0.263,-8.769 0.05,-17.553 0.05,-27.354zm-15.481 -54.76c39.335,0.305 70.051,31.517 69.83,70.96 -0.211,37.867 -32.441,69.284 -70.66,68.877 -38.862,-0.413 -69.488,-32.169 -69.094,-71.644 0.374,-37.514 32.133,-68.486 69.924,-68.193z"/>
  <path class="fil0" d="M-1168.428 854.224c1.537,13.91 5.784,29.543 15.309,43.313 7.906,11.43 16.567,11.543 24.472,0.223 9.572,-13.707 14.541,-29.256 15.673,-45.786 1.085,-15.831 -11.555,-28.691 -27.286,-28.864 -16.423,-0.181 -28.318,11.863 -28.168,31.114zm28.2 -54.501c10.539,-0.004 21.084,-0.207 31.617,0.041 18.922,0.445 32.56,13.698 32.895,32.508 0.38,21.283 0.468,42.585 0.005,63.864 -0.44,20.23 -13.914,33.133 -34.149,33.307 -20.862,0.18 -41.73,0.175 -62.591,-0.092 -19.735,-0.251 -33.026,-13.659 -33.233,-33.481 -0.221,-21.072 -0.218,-42.15 -0.007,-63.222 0.188,-18.835 13.588,-32.328 32.555,-32.864 10.961,-0.31 21.938,-0.056 32.908,-0.061z"/>
  <path class="fil0" d="M-664.468 291.294c-1.326,-1.935 -3.467,1.314 -4.803,-0.708 2.022,-2.751 2.022,-2.751 2.662,-6.347 -7.287,2.554 -7.287,2.554 -11.274,0.261 -11.481,-6.607 -24.562,0.048 -25.258,13.294 -0.217,4.142 -1.742,3.92 -4.549,3.421 -10,-1.778 -18.828,-5.862 -25.806,-13.378 -2.929,-3.155 -4.104,-2.007 -4.803,1.474 -1.269,6.317 0.587,11.701 5.491,16.408 -6.481,-0.288 -7.085,0.677 -4.569,6 1.921,4.066 5.23,6.65 9.883,8.976 -6.383,0.109 -5.557,2.545 -2.899,5.746 2.873,3.462 6.837,5.01 11.197,6.414 -5.916,5.502 -13.325,6.013 -21.191,6.989 1.246,0.997 1.685,1.479 2.228,1.764 27.571,14.445 62.769,-3.228 66.73,-34.102 0.836,-6.515 3.177,-11.448 6.805,-16.321 0.28,-0.169 0.561,-0.338 0.841,-0.508 -0.25,-0.074 -0.5,-0.148 -0.751,-0.222 0.023,0.28 0.044,0.559 0.066,0.839zm-37.264 -46.869c38.902,0.432 69.856,31.975 69.383,70.704 -0.469,38.283 -32.351,69.487 -70.545,69.044 -38.848,-0.451 -69.923,-32.228 -69.271,-70.836 0.657,-38.863 31.806,-69.339 70.433,-68.912z"/>
  <path class="fil1" d="M-1130.301 1087.538c17.118,-2.307 29.312,-20.67 30.465,-32.888 0.237,-2.507 -0.452,-3.513 -3.079,-3.412 -4.08,0.157 -8.183,0.234 -12.252,-0.032 -3.343,-0.219 -4.321,0.906 -4.558,4.284 -0.801,11.425 -3.013,22.509 -10.576,32.048zm-20.809 0.077c-5.516,-6.935 -8.105,-14.761 -9.515,-23.036 -2.427,-14.233 -2.412,-14.235 -17.173,-13.34 -0.215,0.012 -0.432,0.036 -0.645,0.016 -2.561,-0.239 -3.176,0.841 -3.103,3.411 0.398,13.999 15.431,30.633 30.436,32.949zm20.86 -78.732c5.817,7.289 7.919,15.105 9.569,23.099 0.889,4.304 -0.834,10.554 2.333,12.548 3.412,2.147 9.108,0.669 13.808,0.766 0.643,0.014 1.294,-0.079 1.928,-0.005 2.856,0.33 2.908,-1.242 2.78,-3.502 -0.799,-14.109 -14.946,-29.974 -30.418,-32.906zm-20.954 -0.569c-14.72,4.306 -23.453,12.943 -28.395,25.579 -4.12,10.536 -3.432,11.394 7.543,11.395 2.368,0.001 4.739,-0.08 7.102,0.008 2.123,0.079 2.969,-0.652 3.1,-2.933 0.669,-11.677 3.008,-22.915 10.65,-34.049zm9.991 42.935c-3.874,0 -7.747,-0.014 -11.62,0.007 -1.516,0.007 -3.231,-0.092 -3.072,2.189 0.726,10.36 1.859,20.646 8.673,29.156 4.519,5.644 8.562,5.58 13.092,-0.13 5.573,-7.024 7.118,-15.454 8.268,-24.065 0.684,-5.129 0.116,-8.339 -6.318,-7.226 -2.925,0.506 -6.01,0.086 -9.023,0.069zm-14.674 -5.959c8.941,0 17.909,-0.123 26.869,0.068 3.064,0.066 3.443,-1.179 3.325,-3.783 -0.395,-8.666 -1.962,-17.003 -6.308,-24.625 -1.929,-3.383 -4.082,-6.862 -8.483,-7.022 -4.793,-0.174 -7.017,3.594 -9.064,7.112 -4.989,8.577 -6.153,18.076 -6.339,28.25zm-49.883 2.63c0,-10.328 -0.139,-20.656 0.03,-30.981 0.326,-19.926 13.893,-33.449 33.897,-33.612 20.873,-0.171 41.749,-0.162 62.622,0.001 18.32,0.142 32.103,11.948 33.136,30.149 1.315,23.176 1.413,46.476 -0.064,69.649 -1.131,17.731 -13.404,29.35 -31.181,29.882 -22.358,0.671 -44.768,0.654 -67.125,-0.045 -18.152,-0.567 -30.654,-13.978 -31.192,-32.129 -0.325,-10.962 -0.06,-21.942 -0.06,-32.914l-0.063 0z"/>
  <path class="fil0" d="M-896.643 1048.309c-11.525,-6.69 -22.258,-12.933 -33.009,-19.146 -2.028,-1.172 -3.55,-1.518 -3.526,1.826 0.094,12.388 0.038,24.778 0.038,38.278 12.396,-7.118 23.863,-13.703 36.497,-20.958zm-22.171 48.832c-17.415,-0.263 -34.866,0.224 -52.159,-2.545 -8.533,-1.367 -13.826,-5.898 -15.32,-14.25 -3.857,-21.565 -3.753,-43.209 0.069,-64.764 1.451,-8.187 7.787,-13.014 17.083,-14.077 19.915,-2.276 39.921,-2.402 59.915,-2.082 13.1,0.209 26.219,0.259 39.276,1.967 11.672,1.526 16.805,5.743 18.678,17.605 3.173,20.096 3.153,40.258 -0.293,60.33 -1.593,9.275 -6.615,13.869 -15.732,15.313 -17.082,2.705 -34.316,2.246 -51.517,2.503z"/>
  <path class="fil0" d="M-1139.876 -59.027c12.798,-4.456 19.17,-13.086 17.806,-23.43 -1.318,-9.992 -9.525,-17.591 -19.609,-18.159 -9.88,-0.556 -18.767,5.822 -21.104,15.388 -1.381,5.65 -0.636,11.149 2.44,16.151 3.096,5.034 7.871,7.978 13.934,9.892 -22.431,5.505 -34.363,17.35 -37.114,35.894 -0.639,4.312 -0.129,6.164 4.909,5.897 8.364,-0.444 16.769,-0.129 25.157,-0.13 15.7,-0.001 31.402,-0.125 47.099,0.086 4.015,0.053 5.171,-0.711 4.41,-4.999 -0.948,-5.338 -2.153,-10.477 -4.838,-15.181 -7.189,-12.594 -18.342,-19.313 -33.09,-21.409zm-1.024 71.456c-10.539,0.002 -21.081,0.168 -31.616,-0.034 -19.549,-0.375 -33.056,-14.017 -33.193,-33.578 -0.143,-20.428 -0.156,-40.857 -0.008,-61.284 0.156,-21.421 13.133,-34.619 34.538,-34.886 20.429,-0.256 40.867,-0.236 61.297,0.006 20.541,0.244 33.875,13.371 34.212,33.957 0.341,20.853 0.292,41.719 -0.05,62.572 -0.321,19.642 -13.95,32.917 -33.563,33.218 -10.537,0.161 -21.078,0.028 -31.617,0.029z"/>
  <path class="fil0" d="M-1100.129 307.433c-13.124,-11.252 -25.518,-21.859 -37.882,-32.5 -1.58,-1.359 -2.808,-2.321 -4.915,-0.491 -12.576,10.928 -25.267,21.725 -38.916,33.42 2.308,0.149 3.324,0.415 4.26,0.243 6.254,-1.151 7.404,1.89 7.22,7.48 -0.388,11.816 -0.009,23.656 -0.186,35.483 -0.052,3.464 0.681,4.848 4.547,4.799 16.777,-0.217 33.56,-0.193 50.338,-0.013 3.603,0.039 4.762,-0.894 4.674,-4.61 -0.252,-10.533 -0.088,-21.075 -0.089,-31.614 0,-10.68 0,-10.68 10.949,-12.197zm-40.786 71.665c-10.541,0 -21.084,0.133 -31.623,-0.029 -18.519,-0.285 -32.364,-12.688 -32.941,-31.035 -0.715,-22.773 -0.698,-45.603 0.02,-68.376 0.529,-16.75 13.561,-29.553 30.434,-30.032 22.997,-0.652 46.038,-0.624 69.035,0.01 15.842,0.437 27.806,12.007 29.705,27.886 1.789,14.97 0.548,30.074 0.633,45.117 0.053,9.444 0.703,18.915 -0.595,28.346 -2.206,16.01 -14.918,27.667 -31.11,28.03 -11.181,0.25 -22.372,0.048 -33.558,0.048l0 0.035z"/>
  <path class="fil1" d="M-635.348 517.69c-9.473,32.967 -45.952,58.837 -87.564,46.627 0.036,-0.06 0.071,-0.113 0.101,-0.172 6.244,-10.343 9.91,-21.566 12.459,-34.072 9.804,9.348 20.596,9.029 31.133,3.631 13.364,-6.848 19.349,-19.012 21.057,-33.446 3.815,-32.186 -24.055,-51.759 -54.863,-45.355 -28.804,5.985 -39.973,35.096 -30.542,55.532 1.999,4.334 4.512,8.261 8.486,11.117 2.945,2.123 4.541,1.383 5.328,-2.076 0.816,-3.625 0.975,-6.788 -1.083,-10.431 -5.948,-10.537 -3.962,-23.777 4.252,-32.931 8.64,-9.632 22.807,-12.92 35.444,-8.225 11.306,4.204 17.432,13.535 17.598,26.551 0.1,7.918 -1.449,15.374 -5.742,22.121 -2.738,4.311 -6.428,7.51 -11.388,8.988 -4.376,1.301 -8.563,0.869 -12.082,-2.276 -3.447,-3.087 -3.654,-6.972 -2.507,-11.218 1.733,-6.416 3.554,-12.826 4.813,-19.342 0.947,-4.926 0.095,-9.799 -5.54,-11.549 -5.511,-1.709 -9.662,0.923 -12.489,5.588 -2.519,4.175 -3.76,8.906 -2.531,13.613 1.768,6.782 0.308,13.068 -1.206,19.608 -3.169,13.748 -8.042,27.296 -5.369,42.427l0 0.006c-34.734,-13.334 -53.024,-52.681 -41.257,-86.776 12.619,-36.574 50.754,-56.088 87.593,-44.835 36.125,11.034 56.714,49.252 45.899,86.895z"/>
  <path class="fil0" d="M-1168.531 131.088l0.023 0c0,10.968 0.229,21.942 -0.09,32.9 -0.176,6.028 1.861,8.636 8.129,8.511 13.332,-0.266 26.674,-0.222 40.007,-0.004 5.562,0.091 7.724,-2.271 7.704,-7.645 -0.084,-22.58 -0.113,-45.161 0.022,-67.741 0.033,-5.395 -1.891,-7.835 -7.538,-7.745 -13.548,0.216 -27.106,0.261 -40.652,-0.01 -6.09,-0.123 -7.798,2.599 -7.677,8.187 0.242,11.178 0.072,22.364 0.072,33.547zm27.364 64.662c-10.754,-0.008 -21.511,0.158 -32.261,-0.046 -17.759,-0.338 -31.78,-13.647 -32.136,-31.25 -0.448,-22.139 -0.463,-44.299 -0.073,-66.439 0.308,-17.544 12.718,-30.978 30.252,-31.619 22.975,-0.84 46.026,-0.885 69.001,-0.049 18.096,0.66 30.343,14.206 30.669,32.538 0.374,21.066 0.411,42.149 0.022,63.215 -0.38,20.546 -13.95,33.472 -34.502,33.644 -10.323,0.087 -20.648,0.015 -30.972,0.006z"/>
  <path class="fil0" d="M-702.271 1020.343c-9.644,0.452 -19.543,-0.198 -29.379,1.384 -5.442,0.874 -8.424,3.805 -9.286,9.12 -1.874,11.544 -1.838,23.088 -0.023,34.635 0.933,5.941 4.434,8.958 10.391,9.518 18.894,1.775 37.777,1.774 56.67,-0.014 5.982,-0.566 9.478,-3.775 10.363,-9.588 1.726,-11.331 1.682,-22.702 0.01,-34.04 -0.856,-5.808 -4.177,-8.885 -10.197,-9.752 -9.429,-1.357 -18.884,-0.802 -28.549,-1.263zm-0.194 97.797c-38.663,-0.14 -69.645,-31.12 -69.741,-69.737 -0.097,-38.627 31.397,-70.188 70.027,-70.177 38.087,0.011 70.014,31.936 69.834,69.828 -0.186,38.953 -31.475,70.227 -70.12,70.086z"/>
  <path class="fil0" d="M-1140.782 467.952c-11.816,0 -23.633,0.082 -35.449,-0.042 -4.386,-0.046 -6.215,1.829 -6.194,6.157 0.076,15.465 0.121,30.93 -0.025,46.394 -0.046,5.009 2.151,6.917 6.984,6.902 23.203,-0.078 46.406,-0.115 69.609,0.031 4.694,0.03 6.751,-1.88 6.748,-6.398 -0.009,-15.679 -0.022,-31.358 -0.011,-47.037 0.003,-4.653 -2.236,-6.204 -6.859,-6.097 -11.595,0.27 -23.201,0.089 -34.803,0.09zm-0.325 94.485c-10.758,0 -21.521,0.204 -32.272,-0.046 -18.162,-0.424 -31.866,-13.638 -32.222,-31.832 -0.434,-22.145 -0.421,-44.314 0.058,-66.458 0.376,-17.363 13.251,-30.669 30.684,-31.19 22.569,-0.674 45.186,-0.69 67.757,-0.062 18.742,0.522 31.078,14.129 31.445,33.943 0.381,20.643 0.348,41.303 -0.012,61.946 -0.358,20.467 -13.968,33.528 -34.457,33.72 -10.326,0.097 -20.654,0.017 -30.981,0.017l0 -0.038z"/>
  <path class="fil0" d="M-988.001 358.379c15.595,0.568 28.413,-2.548 40.526,-11.724 -12.335,-2.333 -21.26,-7.933 -25.484,-19.664 3.317,-1.29 6.664,0.802 9.895,-1.546 -12.241,-5.107 -19.507,-13.645 -20.29,-27.345 3.955,-0.019 6.968,3.223 11.129,1.786 -4.986,-4.938 -9.161,-10.276 -10.204,-17.312 -0.988,-6.671 -0.851,-13.194 3.383,-19.579 10.274,11.773 22.371,20.38 36.904,25.362 5.513,1.89 11.248,2.733 16.935,3.853 4.021,0.793 4.951,-0.279 4.838,-4.471 -0.499,-18.57 13.062,-31.424 31.269,-30.118 4.162,0.299 8.523,1.135 11.416,3.9 6.547,6.256 12.771,3.757 19.284,0.524 1.325,-0.658 2.709,-1.195 4.867,-2.136 -1.385,6.437 -5.805,10.063 -9.716,14.269 4.681,0.919 8.181,-2.109 13.497,-2.309 -2.699,3.109 -4.375,5.958 -6.837,7.688 -5.441,3.821 -6.575,8.715 -7.14,15.19 -5.833,66.833 -74.091,93.916 -124.272,63.632z"/>
  <path class="fil0" d="M-742.055 130.463c0.033,0 0.066,0.001 0.099,0.001 0,6.236 -0.379,12.5 0.079,18.702 0.915,12.361 7.954,19.807 20.28,21.027 13.067,1.294 26.223,1.388 39.293,-0.104 11.227,-1.282 17.939,-7.927 19.197,-19.176 1.462,-13.058 1.453,-26.208 0.097,-39.271 -1.309,-12.603 -8.996,-19.868 -21.649,-20.349 -11.601,-0.441 -23.24,-0.427 -34.845,-0.055 -13.554,0.434 -21.783,8.82 -22.503,22.451 -0.294,5.577 -0.048,11.182 -0.048,16.774zm-30.087 0.436c0.02,-38.661 31.156,-69.935 69.527,-69.837 38.97,0.1 70.297,31.258 70.254,69.874 -0.044,38.63 -31.607,70.016 -70.285,69.89 -38.408,-0.125 -69.516,-31.426 -69.496,-69.927z"/>
  <path class="fil1" d="M-748.432 911.261c7.273,-1.884 13.477,-3.404 19.626,-5.122 3.023,-0.845 5.708,-0.758 8.69,0.546 10.675,4.67 21.584,4.822 32.656,1.191 23.309,-7.643 36.391,-33.073 29.182,-56.938 -7.05,-23.339 -32.402,-37.355 -55.538,-30.703 -24.907,7.16 -40.236,32.175 -32.311,55.932 3.415,10.237 2.707,18.909 -0.472,28.297 -0.616,1.816 -1.008,3.707 -1.833,6.797zm-23.716 -46.815c-0.07,-38.522 30.999,-69.647 69.619,-69.744 38.415,-0.096 70.056,31.151 70.173,69.3 0.119,38.942 -31.023,70.385 -69.735,70.409 -39.137,0.024 -69.986,-30.784 -70.057,-69.965z"/>
  <path class="fil0" d="M-1345.608 93.429c3.411,0.016 6.592,0.192 6.697,-3.702 0.108,-3.965 -3.041,-3.872 -5.888,-3.839 -2.962,0.033 -6.577,-0.434 -6.43,3.936 0.128,3.769 3.394,3.659 5.621,3.605zm0.899 74.962c-2.705,0.609 -7.131,-1.54 -7.497,3.313 -0.354,4.706 3.754,4.316 6.874,4.213 3.164,-0.105 7.689,1.061 7.606,-4.14 -0.071,-4.496 -4.187,-2.98 -6.983,-3.386zm35.072 -37.163c0,13.988 0.053,27.976 -0.019,41.963 -0.043,8.354 -1.601,10.063 -9.645,10.118 -17.219,0.118 -34.44,0.12 -51.659,0.021 -7.239,-0.042 -9.168,-2.104 -9.177,-9.28 -0.033,-28.621 -0.045,-57.241 -0.015,-85.862 0.009,-7.904 1.957,-9.853 9.949,-9.884 16.79,-0.066 33.579,-0.067 50.368,-0.011 8.349,0.027 10.184,1.836 10.243,10.327 0.099,14.202 0.027,28.406 0.027,42.608l-0.072 0z"/>
  <path class="fil0" d="M-1303.796 474.636c-0.019,-0.642 -0.345,-1.858 -1.532,-2.656 -1.971,-1.326 -3.709,-0.35 -5.387,0.644 -9.962,5.902 -19.993,11.696 -29.811,17.828 -3.115,1.945 -5.308,2.243 -8.606,0.127 -9.556,-6.13 -19.43,-11.763 -29.189,-17.575 -2.265,-1.349 -4.984,-2.931 -6.822,-0.075 -2.09,3.244 0.711,4.988 3.192,6.475 11.036,6.618 22.113,13.17 33.081,19.897 2.944,1.805 5.405,1.76 8.326,-0.033 11.147,-6.843 22.393,-13.525 33.61,-20.255 1.473,-0.884 3.129,-1.575 3.138,-4.377zm-40.907 -14.49c14.623,0 29.25,0.171 43.869,-0.082 5.962,-0.103 8.62,1.852 8.548,8.14 -0.225,19.562 -0.19,39.13 -0.009,58.693 0.057,6.157 -2.581,8.345 -8.555,8.316 -29.461,-0.143 -58.924,-0.143 -88.385,0.002 -5.75,0.028 -8.2,-2.189 -8.158,-7.963 0.143,-19.779 0.208,-39.56 0.025,-59.338 -0.056,-5.959 2.46,-7.901 8.15,-7.817 14.836,0.219 29.676,0.073 44.515,0.073l0 -0.024z"/>
  <path class="fil0" d="M-1294.01 306.538c-0.851,0.063 -1.62,0.153 -2.39,0.172 -11.091,0.272 -11.093,0.269 -11.094,11.688 -0.001,14.396 -0.121,28.794 0.082,43.188 0.054,3.826 -0.795,5.2 -4.951,5.159 -21.706,-0.212 -43.416,-0.228 -65.12,0.026 -4.628,0.054 -5.148,-1.838 -5.11,-5.668 0.162,-16.114 -0.195,-32.237 0.222,-48.342 0.139,-5.351 -1.668,-6.695 -6.448,-6.108 -2.277,0.28 -4.617,0.048 -8.527,0.048 9.473,-8.155 17.809,-15.351 26.167,-22.52 7.659,-6.571 15.419,-13.027 22.969,-19.719 2.351,-2.084 3.869,-2.406 6.446,-0.161 15.697,13.672 31.564,27.148 47.355,40.713 0.228,0.196 0.195,0.696 0.399,1.524z"/>
  <path class="fil1" d="M-954.606 566.031c-3.572,-18.264 2.621,-34.657 6.322,-51.332 1.994,-8.98 4.489,-17.582 2.026,-27.112 -1.868,-7.231 0.058,-14.548 5.265,-20.485 4.142,-4.722 9.403,-6.316 15.108,-3.902 5.759,2.437 7.093,7.804 6.407,13.492 -1.006,8.338 -3.8,16.28 -6.175,24.291 -1.76,5.936 -2.192,11.529 2.834,16.069 5.092,4.6 11.063,4.13 16.952,1.993 2.572,-0.933 5.085,-2.41 7.2,-4.156 15.829,-13.069 17.824,-45.276 3.849,-60.382 -12.197,-13.183 -36.788,-14.981 -52.138,-3.813 -16.002,11.642 -20.842,32.343 -10.918,49.11 3.365,5.686 0.793,10.489 -0.742,15.337 -0.923,2.914 -3.723,0.71 -5.369,-0.399 -8.626,-5.806 -12.69,-14.677 -14.333,-24.325 -5.476,-32.139 17.123,-59.98 49.693,-62.343 18.677,-1.355 35.593,2.26 49.091,15.999 17.214,17.523 19.221,47.673 5.019,69.151 -9.911,14.988 -23.243,23.128 -41.749,21.049 -6.222,-0.698 -11.093,-4.005 -15.626,-8.543 -4.814,11.525 -4.192,24.752 -13.536,33.959 -2.613,2.574 -5.584,4.549 -9.18,6.342z"/>
  <path class="fil0" d="M-897.086 654.638c0,17.244 0.473,32.674 -0.125,48.062 -0.68,17.533 -9.798,30.046 -25.884,36.704 -15.168,6.278 -29.879,4.042 -41.996,-7.034 -12.459,-11.39 -17.174,-26.024 -12.78,-42.718 4.857,-18.454 21.01,-30.594 39.752,-30.741 4.09,-0.032 5.991,1.084 5.381,5.414 -0.267,1.897 -0.023,3.863 -0.032,5.798 -0.016,3.653 0.968,7.729 -0.334,10.85 -1.538,3.688 -6.075,0.869 -9.235,1.8 -8.594,2.531 -14.717,10.941 -13.999,20.011 0.731,9.241 7.889,16.399 17.123,17.123 9.268,0.727 17.152,-5.063 19.28,-14.44 0.609,-2.686 0.686,-5.535 0.691,-8.309 0.047,-26.658 0.169,-53.316 -0.103,-79.97 -0.05,-4.895 1.257,-6.694 6.013,-5.816 0.417,0.077 0.865,0.058 1.288,0.003 9.175,-1.183 15.663,-0.53 18.275,11.389 2.474,11.289 12.133,17.965 24.175,19.141 3.81,0.372 4.642,1.81 4.456,5.188 -0.225,4.072 -0.305,8.188 0.03,12.245 0.369,4.48 -0.981,5.971 -5.724,5.626 -9.263,-0.674 -17.535,-3.633 -26.252,-10.326z"/>
  <path class="fil0" d="M-907.026 -13.556c0.002,8.607 -0.154,17.219 0.081,25.819 0.092,3.369 -1.023,4.352 -4.296,4.629 -5.816,0.493 -11.584,0.472 -17.4,0.19 -4.178,-0.201 -5.82,-1.573 -5.736,-6.148 0.305,-16.563 -0.05,-33.138 0.236,-49.701 0.079,-4.544 -1.153,-5.887 -5.693,-5.736 -5.281,0.175 -12.189,2.436 -15.485,-0.962 -3.278,-3.378 -0.874,-10.235 -0.981,-15.56 -0.168,-8.318 -0.044,-8.32 8.644,-8.32 13.392,0 13.44,0 13.374,-13.217 -0.028,-5.614 0.133,-11.243 1.451,-16.672 3.042,-12.533 11.196,-20.21 23.804,-22.428 7.843,-1.379 15.861,-0.613 23.784,0.44 2.501,0.333 4.055,1.085 3.558,3.951 -0.109,0.626 -0.007,1.288 -0.017,1.933 -0.076,4.94 1.491,10.845 -0.685,14.556 -2.301,3.926 -8.693,1.023 -13.258,1.733 -6.498,1.011 -10.201,4.467 -10.834,10.824 -0.509,5.119 -0.28,10.307 -0.559,15.454 -0.166,3.062 1.434,3.515 3.962,3.46 5.163,-0.112 10.335,0.102 15.494,-0.079 3.45,-0.121 5.34,0.43 4.164,4.593 -0.927,3.284 -1.213,6.751 -1.756,10.141 -1.652,10.308 -1.647,10.309 -12.331,10.291 -1.721,-0.003 -3.461,0.15 -5.161,-0.044 -3.417,-0.39 -4.492,1.033 -4.423,4.388 0.179,8.819 0.06,17.643 0.063,26.465z"/>
  <path class="fil1" d="M-972.207 918.157c3.82,-0.918 6.618,-1.273 9.171,-2.262 7.789,-3.017 14.646,-2.307 22.543,1.395 20.251,9.497 46.754,3.695 62.569,-12.291 19.933,-20.149 22.72,-52.685 6.383,-74.53 -18.605,-24.878 -49.444,-31.292 -76.946,-16.004 -23.566,13.101 -35.03,44.605 -23.627,70.41 4.623,10.461 4.744,19.323 1.076,29.219 -0.356,0.959 -0.573,1.97 -1.169,4.063zm-16.772 16.731c3.035,-11.217 5.61,-21.347 8.579,-31.359 1.006,-3.39 0.575,-6.19 -0.883,-9.233 -13.091,-27.305 -7.756,-58.693 13.452,-79.601 21.265,-20.965 52.827,-26.388 79.146,-13.598 27.219,13.226 42.715,41.46 39.202,71.424 -5.372,45.831 -55.719,74.274 -97.589,54.99 -3.576,-1.647 -6.648,-2.031 -10.402,-0.959 -10.076,2.876 -20.256,5.388 -31.505,8.336z"/>
  <path class="fil2" d="M-1558.311 1003.627c-16.071,6.495 -26.093,18.042 -29.892,34.903 -0.95,4.214 -0.329,6.519 4.794,5.995 4.032,-0.413 8.143,-0.266 12.208,-0.091 2.758,0.118 3.71,-0.839 3.838,-3.62 0.59,-12.888 3.358,-25.271 9.052,-37.187zm34.813 -1.039c2.226,5.302 4.221,9.333 5.609,13.563 1.395,4.251 2.389,8.664 3.187,13.073 0.87,4.81 -0.351,11.295 2.377,14.132 3.157,3.285 9.772,0.362 14.808,1.114 5.436,0.812 5.613,-2.144 4.693,-6.015 -3.976,-16.716 -13.725,-28.567 -30.674,-35.867zm-0.828 91.647c18.066,-7.829 27.776,-20.007 31.597,-37.067 0.81,-3.614 0.193,-5.705 -4.324,-5.291 -4.261,0.391 -8.588,0.178 -12.88,0.047 -2.473,-0.075 -3.272,0.815 -3.441,3.325 -0.88,13.077 -3.347,25.783 -10.952,38.986zm-32.724 -1.025c-5.197,-8.703 -7.383,-17.412 -9.21,-26.293 -1.014,-4.93 1.054,-11.914 -2.808,-14.35 -3.709,-2.339 -10.012,-0.566 -15.175,-0.601 -0.215,-0.002 -0.433,0.02 -0.645,-0.01 -3.322,-0.473 -3.954,1.157 -3.701,4.144 1.266,14.966 15.5,32.304 31.539,37.11zm16.222 -48.804l0 0.024c5.36,0 10.72,-0.059 16.078,0.026 2.392,0.038 4.135,-0.066 3.824,-3.326 -1.169,-12.216 -2.832,-24.291 -9.972,-34.744 -6.094,-8.922 -13.331,-8.888 -19.283,0.198 -6.777,10.345 -8.712,22.144 -9.633,34.208 -0.218,2.848 0.721,3.77 3.552,3.668 5.139,-0.187 10.289,-0.054 15.434,-0.054zm0.392 7.541c-5.165,0 -10.331,0.076 -15.494,-0.034 -2.48,-0.053 -4.114,0.193 -3.88,3.396 0.869,11.905 2.82,23.543 9.298,33.821 6.428,10.201 13.702,10.07 20.252,-0.127 6.23,-9.698 7.787,-20.76 9.279,-31.879 0.609,-4.542 -1.185,-5.514 -5.255,-5.255 -4.715,0.3 -9.465,0.07 -14.2,0.078zm-1.494 -59.839c30.182,-1.539 56.458,23.645 57.71,55.313 1.159,29.325 -24.298,56.565 -54.886,57.07 -29.828,0.493 -56.699,-21.394 -57.62,-55.513 -0.817,-30.248 22.761,-55.473 54.796,-56.87z"/>
  <path class="fil1" d="M-1363.459 845.734c-0.04,10.211 8.037,18.471 18.249,18.659 10.333,0.191 19.062,-8.443 18.973,-18.767 -0.089,-10.252 -8.183,-18.405 -18.43,-18.563 -10.502,-0.163 -18.75,8.032 -18.792,18.671zm-16.606 4.629c-0.095,-22.949 15.946,-38.936 35.902,-38.465 20.445,0.483 36.047,18 34.087,38.705 -1.911,20.174 -8.031,39.007 -19.488,55.869 -9.606,14.137 -20.892,14.245 -30.678,0.266 -12.394,-17.705 -17.638,-37.882 -19.823,-56.375z"/>
  <path class="fil1" d="M-1336.21 -51.134c23.67,4.204 41.564,23.786 42.916,46.566 0.224,3.777 -0.598,4.716 -4.379,4.7 -31.401,-0.138 -62.803,-0.161 -94.203,0.064 -4.701,0.034 -5.213,-1.642 -4.73,-5.625 2.998,-24.723 21.162,-43.166 45.633,-46.104 1.747,0.419 3.349,0.474 3.99,-1.713l3.767 0.161c1.697,2.942 4.499,1.919 7.006,1.951z"/>
  <path class="fil2" d="M-1518.198 -78.528c0.09,-12.579 -9.843,-22.69 -22.264,-22.664 -12.197,0.026 -22.109,9.764 -22.392,21.999 -0.292,12.636 10.021,23.069 22.7,22.964 12.164,-0.1 21.867,-9.954 21.956,-22.299zm-22.754 74.808c13.535,0 27.07,-0.003 40.605,0.001 7.982,0.002 8.031,-0.055 6.157,-7.87 -5.155,-21.511 -25.314,-37.263 -47.013,-36.737 -23.113,0.561 -42.014,17.146 -46.209,40.019 -0.763,4.162 0.329,4.689 3.923,4.655 14.178,-0.135 28.358,-0.055 42.537,-0.068zm-17.139 -49.701c-15.25,-18.574 -16.146,-35.188 -2.561,-47.41 12.081,-10.869 31.079,-10.269 41.903,1.461 9.427,10.218 14.164,29.22 -4.748,45.887 11.041,4.42 20.569,10.587 27.605,20.156 6.829,9.288 10.234,19.705 11.098,31.102 0.308,4.071 -1.207,5.99 -5.423,5.985 -33.346,-0.038 -66.693,-0.05 -100.04,0.049 -5.036,0.016 -6.126,-2.423 -5.762,-6.867 1.948,-23.744 14.293,-39.836 35.889,-49.219 0.723,-0.314 1.773,-0.027 2.039,-1.144z"/>
  <path class="fil1" d="M-1385.725 632.101c27.421,18.054 53.608,35.295 79.795,52.537 -0.111,0.514 -0.223,1.029 -0.334,1.543 -12.53,0 -25.059,-0.019 -37.589,0.008 -6.78,0.015 -6.786,0.054 -3.428,5.85 5.705,9.846 11.452,19.668 17.104,29.544 1.344,2.348 3.494,5.142 -0.197,7.151 -3.531,1.922 -4.835,-1.084 -6.265,-3.543 -6.552,-11.264 -13.146,-22.505 -20.273,-34.691 -7.591,12.978 -14.736,25.193 -22.826,39.023 -2.044,-33.264 -3.968,-64.577 -5.987,-97.422z"/>
  <path class="fil2" d="M-1540.953 531.306c14.638,0 29.277,-0.099 43.912,0.069 3.728,0.043 5.42,-0.766 5.381,-4.943 -0.18,-19.367 -0.145,-38.736 -0.031,-58.104 0.021,-3.381 -1.161,-4.446 -4.483,-4.438 -29.489,0.076 -58.979,0.074 -88.469,-0.055 -3.745,-0.016 -4.729,1.389 -4.705,4.917 0.13,19.153 0.158,38.307 -0.008,57.459 -0.034,3.933 1.136,5.232 5.138,5.174 14.419,-0.208 28.843,-0.081 43.265,-0.079zm0.649 -74.967c14.848,0.002 29.697,-0.056 44.545,0.025 8.282,0.045 11.372,2.944 11.435,11.229 0.154,20.006 0.151,40.016 0.03,60.022 -0.049,8.035 -3.361,11.281 -11.572,11.307 -29.696,0.093 -59.393,0.083 -89.089,-0.022 -8.74,-0.032 -11.913,-3.398 -11.95,-12.358 -0.079,-19.147 -0.091,-38.295 0.01,-57.442 0.051,-9.862 2.999,-12.727 12.691,-12.753 14.633,-0.039 29.267,-0.01 43.9,-0.008z"/>
  <path class="fil2" d="M-1582.658 302.863c7.553,-0.652 8.778,2.843 8.699,8.187 -0.229,15.268 0.103,30.545 -0.167,45.812 -0.081,4.562 0.713,6.371 5.852,6.281 18.712,-0.328 37.436,-0.295 56.15,-0.012 4.786,0.072 5.582,-1.646 5.512,-5.913 -0.244,-15.054 0,-30.113 -0.156,-45.168 -0.054,-5.173 -0.262,-10.028 8.167,-9.4 -13.834,-11.826 -26.427,-22.552 -38.959,-33.347 -1.81,-1.559 -3.194,-2.519 -5.475,-0.536 -12.767,11.106 -25.641,22.088 -39.623,34.096zm42.295 67.611c-11.176,0 -22.356,-0.184 -33.526,0.077 -5.701,0.133 -8.041,-1.688 -7.904,-7.768 0.355,-15.678 -0.026,-31.371 0.215,-47.052 0.064,-4.164 -1.049,-5.923 -5.274,-5.206 -0.837,0.142 -1.721,0.091 -2.576,0.029 -2.473,-0.178 -5.472,0.717 -6.738,-2.422 -1.403,-3.478 1.552,-5.014 3.575,-6.755 15.463,-13.312 31.063,-26.466 46.415,-39.904 3.94,-3.449 6.818,-3.932 11.011,-0.248 15.319,13.46 30.951,26.566 46.41,39.869 2.022,1.74 5.132,3.264 4.064,6.649 -1.238,3.924 -4.955,2.99 -7.71,2.684 -5.184,-0.575 -6.935,0.854 -6.77,6.456 0.451,15.243 -0.028,30.511 0.251,45.761 0.108,5.906 -2.068,8.033 -7.917,7.877 -11.168,-0.297 -22.35,-0.086 -33.526,-0.086l0 0.039z"/>
  <path class="fil2" d="M-1514.341 682.343c0.125,-0.417 0.25,-0.834 0.376,-1.251 -20.681,-13.602 -41.362,-27.204 -63.103,-41.504 1.62,26.202 3.139,50.764 4.779,77.29 6.323,-11.035 11.84,-20.368 17.031,-29.877 1.894,-3.47 4.228,-4.826 8.195,-4.739 10.903,0.236 21.814,0.081 32.722,0.081zm-29.208 7.566c6.363,11.064 12.029,20.894 17.67,30.739 1.366,2.385 3.588,5.087 0.135,7.239 -3.954,2.465 -5.175,-1.229 -6.648,-3.726 -5.779,-9.793 -11.499,-19.621 -17.793,-30.379 -4.377,7.427 -8.37,14.17 -12.33,20.933 -2.71,4.629 -5.328,9.314 -8.083,13.916 -1.278,2.134 -2.207,5.093 -5.542,4.437 -3.413,-0.672 -3.065,-3.704 -3.223,-6.227 -1.181,-18.882 -2.371,-37.764 -3.473,-56.651 -0.689,-11.804 -1.242,-23.616 -1.822,-35.426 -0.103,-2.095 -0.674,-4.423 1.75,-5.742 2.324,-1.264 4.128,0.155 5.913,1.334 25.637,16.949 51.264,33.914 76.898,50.867 2.173,1.437 4.668,2.782 3.609,5.996 -1.078,3.274 -4.08,2.651 -6.56,2.662 -13.089,0.059 -26.179,0.028 -40.501,0.028z"/>
  <path class="fil1" d="M-1509.125 131.085c0,-13.974 -0.269,-27.954 0.128,-41.916 0.166,-5.861 -1.931,-7.312 -7.446,-7.208 -16.336,0.312 -32.684,0.277 -49.022,0.035 -4.677,-0.069 -6.633,1.309 -6.615,6.112 0.105,28.591 0.073,57.182 0.04,85.773 -0.004,3.835 1.145,5.882 5.558,5.841 17.201,-0.162 34.403,-0.083 51.605,0.024 4.326,0.027 5.937,-1.616 5.859,-6.099 -0.244,-14.184 -0.09,-28.375 -0.107,-42.562zm-70.305 0.005c0.009,-14.415 -0.066,-28.831 0.035,-43.246 0.066,-9.408 3.906,-13.247 13.365,-13.304 17.215,-0.104 34.433,-0.129 51.648,-0.005 9.042,0.065 12.819,3.988 12.838,13.151 0.059,28.83 0.052,57.661 -0.003,86.491 -0.017,9.001 -3.452,12.739 -12.356,12.832 -17.86,0.185 -35.724,0.148 -53.584,-0.009 -8.238,-0.072 -11.84,-3.965 -11.917,-12.665 -0.129,-14.414 -0.035,-28.83 -0.026,-43.245z"/>
  <path class="fil2" d="M-1509.22 851.574c0.603,-20.957 -11.843,-34.411 -30.114,-35.672 -16.436,-1.135 -32.108,11.726 -32.231,28.971 -0.164,23.276 7.192,44.796 21.88,63.155 6.339,7.923 14.084,6.822 20.633,-2.441 12.062,-17.059 17.741,-36.465 19.832,-54.013zm7.744 -0.557c-2.196,19.997 -8.575,41.849 -22.884,60.673 -9.064,11.923 -22.531,12.452 -31.62,0.687 -15.121,-19.574 -23.287,-42.217 -23.24,-66.944 0.04,-21.086 18.531,-37.623 39.228,-37.077 21.796,0.574 38.531,17.694 38.516,42.661z"/>
  <path class="fil0" d="M-1343.216 -53.085c-1.256,-0.054 -2.511,-0.107 -3.767,-0.162 -1.247,-0.02 -2.494,-0.04 -3.74,-0.06 -13.005,-3.789 -20.735,-13.779 -20.356,-26.308 0.368,-12.148 8.713,-22.05 20.725,-24.589 11.864,-2.508 23.616,3.218 28.969,14.113 7.251,14.758 -0.471,31.138 -17.27,36.657 -1.513,0.114 -3.037,0.232 -4.561,0.349z"/>
  <path class="fil1" d="M-1345.039 1044.484l-5.157 0c-15.069,0 -15.28,-0.034 -12.862,-14.934 1.448,-8.924 4.002,-17.613 9.856,-24.857 5.421,-6.706 11.374,-6.889 16.47,-0.073 8.167,10.925 10.635,23.674 10.947,37.02 0.07,3.01 -1.851,2.899 -3.781,2.915 -5.157,0.044 -10.315,0.015 -15.473,0.015 0,-0.029 0,-0.057 0,-0.086z"/>
  <path class="fil1" d="M-1344.281 1051.875c4.947,0 9.895,0.038 14.842,-0.017 2.137,-0.024 3.71,0.127 3.633,3.014 -0.344,12.891 -2.55,25.297 -10.252,35.985 -5.842,8.109 -11.604,8.166 -17.554,0.25 -8.098,-10.774 -9.751,-23.596 -10.748,-36.536 -0.241,-3.133 2.09,-2.649 3.947,-2.662 5.377,-0.038 10.754,-0.013 16.132,-0.013l0 -0.021z"/>
  <path class="fil1" d="M-1332.182 997.863c20.263,4.661 36.484,22.413 38.786,41.495 0.457,3.782 0.088,5.562 -4.31,5.24 -4.908,-0.36 -9.887,-0.389 -14.79,0.005 -4.365,0.35 -5.842,-0.847 -5.963,-5.48 -0.421,-16.15 -5.05,-29.55 -13.723,-41.26z"/>
  <path class="fil1" d="M-1357.546 997.843c-10.042,12.511 -12.81,26.486 -13.777,40.935 -0.282,4.216 -1.246,6.192 -5.926,5.803 -5.112,-0.425 -10.297,-0.296 -15.431,-0.024 -3.426,0.183 -4.47,-0.689 -4.021,-4.29 2.457,-19.727 18.256,-37.376 39.155,-42.424z"/>
  <path class="fil2" d="M-1357.044 1098.533c-19.909,-3.171 -38.427,-23.748 -39.765,-43.102 -0.154,-2.233 -0.076,-3.898 2.809,-3.577 0.425,0.047 0.859,0.009 1.289,0.012 6.445,0.046 14.018,-1.994 19.024,0.713 5.224,2.825 2.12,11.326 3.645,17.22 2.591,10.017 5.071,19.944 12.998,28.734z"/>
  <path class="fil1" d="M-1332.179 1098.389c10.165,-12.941 12.924,-27.369 13.852,-42.321 0.169,-2.725 0.351,-4.398 3.813,-4.238 6.014,0.278 12.053,0.187 18.077,0.036 2.907,-0.073 3.516,0.883 3.293,3.772 -1.458,18.883 -18.954,38.68 -39.035,42.751z"/>
  <path class="fil3" d="M-1343.216 -53.085c1.524,-0.117 3.048,-0.235 4.561,-0.349 0.247,1.387 1.489,1.707 2.462,2.3 -2.525,-0.032 -5.327,0.991 -7.023,-1.951z"/>
  <path class="fil3" d="M-1350.723 -53.307c1.246,0.02 2.493,0.04 3.74,0.06 -0.641,2.188 -2.243,2.133 -3.989,1.714 0.09,-0.593 0.169,-1.183 0.249,-1.774z"/>
  <path class="fil4" d="M-1108.368 684.818l-36.93 0c4.917,8.574 9.338,16.283 13.758,23.993 0.961,1.675 1.955,3.335 2.869,5.036 0.97,1.801 1.686,3.761 -0.702,4.944 -2.284,1.131 -3.484,-0.452 -4.528,-2.274 -4.262,-7.443 -8.564,-14.862 -12.888,-22.27 -0.949,-1.627 -2.041,-3.17 -3.566,-5.519 -5.869,10.039 -11.39,19.484 -17.112,29.273 -1.686,-7.121 -5.405,-67.014 -4.633,-75.112 20.908,13.755 41.499,27.302 63.732,41.929z"/>
  <path class="fil4" d="M-686.721 665.778c0,9.801 0.213,18.585 -0.05,27.354 -0.39,13.021 -9.195,23.056 -21.648,25.149 -10.991,1.848 -22.539,-4.925 -26.76,-15.695 -4.566,-11.651 -0.517,-24.491 9.897,-31.09 1.608,-1.019 3.411,-1.799 5.214,-2.43 3.453,-1.209 7.988,-3.06 10.416,-0.738 2.852,2.727 0.791,7.704 1.015,11.69 0.154,2.732 -2.38,1.827 -3.843,2.111 -7.26,1.408 -11.115,6.205 -10.312,12.995 0.651,5.507 5.424,9.583 11.138,9.51 6.599,-0.083 10.954,-4.752 11.022,-12.4 0.142,-15.896 -0.01,-31.795 0.156,-47.691 0.023,-2.259 -1.665,-6.801 3.163,-5.749 3.688,0.803 9.332,-4.264 11.166,3.903 1.682,7.491 6.606,12.818 14.792,14.353 7.829,1.469 3.012,7.649 3.635,11.489 0.71,4.383 -3.494,2.313 -5.605,2.325 -4.603,0.026 -8.438,-2.527 -13.396,-5.086z"/>
  <path class="fil4" d="M-1139.977 834.955c-8.04,-0.476 -14.969,5.864 -15.403,14.093 -0.404,7.653 5.804,14.615 13.582,15.23 7.827,0.62 15.149,-5.736 15.828,-13.743 0.657,-7.734 -5.97,-15.105 -14.007,-15.58zm-28.451 19.269c-0.149,-19.251 11.745,-31.295 28.168,-31.114 15.731,0.172 28.371,13.033 27.286,28.865 -1.132,16.529 -6.101,32.077 -15.673,45.785 -7.905,11.32 -16.566,11.207 -24.472,-0.223 -9.525,-13.77 -13.772,-29.403 -15.309,-43.313z"/>
  <path class="fil4" d="M-664.624 291.185c-3.628,4.873 -5.969,9.806 -6.804,16.321 -3.962,30.874 -39.16,48.546 -66.731,34.102 -0.543,-0.285 -0.982,-0.767 -2.228,-1.764 7.866,-0.976 15.275,-1.487 21.191,-6.989 -4.36,-1.404 -8.324,-2.952 -11.197,-6.414 -2.658,-3.201 -3.484,-5.637 2.899,-5.746 -4.653,-2.326 -7.962,-4.91 -9.884,-8.976 -2.515,-5.323 -1.911,-6.288 4.57,-6 -4.904,-4.707 -6.76,-10.091 -5.491,-16.409 0.699,-3.48 1.874,-4.628 4.803,-1.473 6.978,7.516 15.806,11.6 25.806,13.378 2.807,0.499 4.332,0.721 4.549,-3.421 0.696,-13.246 13.777,-19.901 25.258,-13.294 3.986,2.293 3.986,2.293 11.274,-0.261 -0.641,3.596 -0.641,3.596 -2.662,6.347 1.336,2.022 3.477,-1.227 4.803,0.708l-0.156 -0.109z"/>
  <path class="fil4" d="M-664.468 291.294c-0.022,-0.28 -0.043,-0.559 -0.066,-0.839 0.251,0.074 0.501,0.148 0.751,0.222 -0.28,0.17 -0.561,0.339 -0.841,0.508l0.156 0.109z"/>
  <path class="fil4" d="M-1155.887 1045.29c0.186,-10.174 1.35,-19.673 6.339,-28.25 2.047,-3.518 4.271,-7.286 9.064,-7.112 4.401,0.159 6.554,3.639 8.483,7.022 4.346,7.622 5.913,15.959 6.308,24.625 0.118,2.604 -0.261,3.848 -3.326,3.784 -8.96,-0.192 -17.926,-0.069 -26.868,-0.069z"/>
  <path class="fil4" d="M-1141.213 1051.257c3.013,0.009 6.098,0.429 9.023,-0.077 6.434,-1.112 7.002,2.098 6.317,7.226 -1.149,8.611 -2.695,17.041 -8.267,24.065 -4.53,5.71 -8.573,5.774 -13.093,0.129 -6.813,-8.509 -7.946,-18.795 -8.671,-29.155 -0.16,-2.281 1.555,-2.182 3.071,-2.19 3.873,-0.02 7.747,-0.006 11.62,0.002z"/>
  <path class="fil4" d="M-1151.204 1008.314c-7.642,11.134 -9.981,22.372 -10.65,34.049 -0.131,2.281 -0.977,3.012 -3.1,2.933 -2.364,-0.088 -4.734,-0.007 -7.101,-0.008 -10.976,-0.001 -11.664,-0.859 -7.544,-11.395 4.942,-12.636 13.675,-21.273 28.395,-25.579z"/>
  <path class="fil4" d="M-1130.25 1008.883c15.472,2.932 29.618,18.797 30.418,32.905 0.128,2.26 0.076,3.833 -2.78,3.502 -0.634,-0.073 -1.285,0.02 -1.928,0.006 -4.7,-0.097 -10.396,1.382 -13.808,-0.766 -3.167,-1.994 -1.444,-8.244 -2.333,-12.549 -1.651,-7.993 -3.752,-15.809 -9.569,-23.098z"/>
  <path class="fil4" d="M-1151.11 1087.615c-15.005,-2.317 -30.037,-18.95 -30.436,-32.949 -0.073,-2.57 0.542,-3.65 3.103,-3.411 0.213,0.02 0.43,-0.004 0.645,-0.016 14.761,-0.895 14.746,-0.893 17.172,13.34 1.412,8.275 4,16.101 9.516,23.036z"/>
  <path class="fil4" d="M-1130.301 1087.538c7.563,-9.539 9.775,-20.623 10.576,-32.048 0.237,-3.378 1.215,-4.503 4.558,-4.284 4.069,0.266 8.172,0.189 12.252,0.032 2.627,-0.101 3.316,0.905 3.079,3.412 -1.153,12.218 -13.347,30.581 -30.465,32.888z"/>
  <path class="fil4" d="M-896.643 1048.309c-12.634,7.255 -24.101,13.84 -36.497,20.958 0,-13.5 0.056,-25.89 -0.038,-38.278 -0.024,-3.344 1.498,-2.998 3.526,-1.826 10.751,6.213 21.484,12.456 33.009,19.146z"/>
  <path class="fil4" d="M-1139.876 -59.027c14.748,2.096 25.901,8.815 33.09,21.409 2.685,4.704 3.89,9.843 4.838,15.181 0.761,4.288 -0.395,5.052 -4.41,4.999 -15.697,-0.211 -31.399,-0.087 -47.099,-0.086 -8.388,0.001 -16.793,-0.314 -25.157,0.13 -5.038,0.267 -5.548,-1.585 -4.909,-5.897 2.751,-18.544 14.683,-30.389 37.114,-35.894 -6.063,-1.914 -10.838,-4.858 -13.934,-9.892 -3.076,-5.002 -3.821,-10.501 -2.44,-16.151 2.337,-9.566 11.224,-15.944 21.104,-15.388 10.084,0.568 18.291,8.167 19.609,18.159 1.364,10.344 -5.008,18.974 -17.806,23.43z"/>
  <path class="fil4" d="M-1100.129 307.433c-10.949,1.517 -10.949,1.517 -10.949,12.197 0.001,10.539 -0.163,21.081 0.089,31.614 0.088,3.716 -1.071,4.649 -4.674,4.61 -16.778,-0.18 -33.561,-0.204 -50.338,0.013 -3.866,0.049 -4.599,-1.335 -4.547,-4.799 0.177,-11.827 -0.202,-23.667 0.186,-35.483 0.184,-5.59 -0.966,-8.631 -7.22,-7.48 -0.936,0.172 -1.952,-0.094 -4.26,-0.243 13.649,-11.695 26.34,-22.492 38.916,-33.42 2.107,-1.83 3.335,-0.868 4.915,0.491 12.364,10.641 24.758,21.248 37.882,32.5z"/>
  <path class="fil5" d="M-1140.491 95.043c-2.418,0.038 -4.94,0.285 -5.226,2.872 -0.304,2.752 2.084,3.417 4.378,3.342 2.263,-0.074 5.178,0.345 5.302,-3.065 0.111,-3.068 -2.683,-2.673 -4.454,-3.149zm-0.51 71.456c2.413,-0.422 5.899,0.706 5.993,-3.044 0.085,-3.379 -3.161,-2.922 -5.303,-2.776 -2.199,0.149 -5.685,-1.411 -6.05,2.517 -0.393,4.225 3.335,2.615 5.36,3.303zm-27.53 -35.411c0,-11.183 0.17,-22.369 -0.072,-33.547 -0.121,-5.588 1.587,-8.31 7.677,-8.188 13.547,0.272 27.104,0.227 40.652,0.011 5.647,-0.09 7.571,2.35 7.538,7.746 -0.136,22.579 -0.106,45.16 -0.022,67.741 0.02,5.373 -2.142,7.735 -7.704,7.644 -13.333,-0.218 -26.675,-0.262 -40.007,0.004 -6.268,0.125 -8.305,-2.483 -8.129,-8.511 0.319,-10.958 0.091,-21.933 0.091,-32.9l-0.024 0z"/>
  <path class="fil4" d="M-689.538 1048.307c-7.02,-4.063 -13.394,-7.752 -20.326,-11.765l0 23.433c6.938,-3.983 13.235,-7.597 20.326,-11.668zm-12.733 -27.964c9.665,0.461 19.12,-0.094 28.549,1.264 6.02,0.866 9.34,3.943 10.197,9.751 1.672,11.339 1.715,22.708 -0.01,34.04 -0.885,5.813 -4.381,9.022 -10.363,9.588 -18.893,1.789 -37.775,1.789 -56.67,0.014 -5.957,-0.56 -9.458,-3.577 -10.391,-9.518 -1.815,-11.547 -1.851,-23.091 0.023,-34.635 0.863,-5.315 3.844,-8.246 9.286,-9.121 9.836,-1.581 19.735,-0.931 29.379,-1.383z"/>
  <path class="fil4" d="M-1169.381 477.029c-2.241,-0.14 -3.454,0.617 -3.725,1.915 -0.412,1.974 1.077,3.052 2.622,3.978 9.012,5.399 18.072,10.724 26.974,16.3 2.81,1.76 4.813,0.578 7.038,-0.767 8.074,-4.88 16.171,-9.721 24.21,-14.656 2.043,-1.255 5.597,-2.315 3.413,-5.568 -2.005,-2.987 -4.637,-0.508 -6.725,0.707 -7.224,4.208 -14.465,8.402 -21.504,12.907 -2.794,1.788 -4.838,1.614 -7.531,-0.118 -6.85,-4.405 -13.887,-8.52 -20.876,-12.707 -1.448,-0.867 -3.01,-1.543 -3.896,-1.991zm28.6 -9.077c11.601,-0.001 23.207,0.18 34.802,-0.09 4.623,-0.107 6.862,1.444 6.859,6.097 -0.01,15.679 0.002,31.358 0.011,47.037 0.002,4.517 -2.054,6.428 -6.749,6.398 -23.202,-0.147 -46.405,-0.109 -69.609,-0.031 -4.832,0.015 -7.029,-1.893 -6.983,-6.902 0.146,-15.464 0.101,-30.929 0.025,-46.394 -0.021,-4.329 1.808,-6.203 6.195,-6.157 11.814,0.124 23.631,0.042 35.449,0.042z"/>
  <path class="fil4" d="M-702.723 163.286l0 0.205c2.797,0 5.595,0.024 8.391,-0.006 3.011,-0.032 6.027,-0.025 9.033,-0.192 9.177,-0.508 15.014,-5.733 15.35,-14.906 0.431,-11.812 0.422,-23.666 -0.061,-35.475 -0.353,-8.637 -5.812,-13.618 -14.477,-14.268 -12.03,-0.9 -24.08,-0.856 -36.104,0.055 -8.154,0.618 -13.168,5.385 -13.866,13.433 -1.077,12.437 -1.062,24.92 -0.014,37.36 0.689,8.166 6.103,13.3 14.326,13.735 5.793,0.307 11.614,0.059 17.422,0.059zm-39.332 -32.823c0,-5.592 -0.246,-11.197 0.048,-16.774 0.72,-13.631 8.949,-22.017 22.503,-22.451 11.605,-0.372 23.244,-0.387 34.845,0.055 12.653,0.481 20.34,7.747 21.648,20.349 1.357,13.063 1.366,26.213 -0.096,39.271 -1.258,11.249 -7.969,17.894 -19.197,19.176 -13.07,1.492 -26.226,1.398 -39.293,0.104 -12.325,-1.22 -19.365,-8.666 -20.28,-21.027 -0.458,-6.202 -0.08,-12.466 -0.08,-18.702 -0.032,0 -0.065,-0.001 -0.098,-0.001z"/>
  <path class="fil4" d="M-737.194 900.016c12.66,-2.592 12.68,-2.654 24.214,1.012 6.983,2.219 13.993,2.15 20.907,0.195 21.647,-6.12 33.248,-28.584 25.902,-49.833 -6.728,-19.465 -30.04,-30.093 -49.538,-22.586 -20.435,7.867 -30.331,31.563 -20.987,51.581 2.198,4.709 2.895,8.703 1.072,13.388 -0.675,1.733 -0.93,3.629 -1.57,6.243zm-11.238 11.245c0.825,-3.09 1.217,-4.981 1.832,-6.797 3.18,-9.388 3.888,-18.06 0.473,-28.297 -7.925,-23.757 7.405,-48.772 32.311,-55.933 23.136,-6.651 48.489,7.365 55.538,30.704 7.209,23.865 -5.873,49.295 -29.182,56.939 -11.071,3.63 -21.981,3.478 -32.656,-1.191 -2.982,-1.305 -5.667,-1.392 -8.69,-0.547 -6.149,1.718 -12.353,3.238 -19.626,5.122z"/>
  <path class="fil4" d="M-1344.709 168.391c2.796,0.406 6.912,-1.111 6.983,3.386 0.083,5.201 -4.442,4.035 -7.606,4.14 -3.12,0.103 -7.228,0.493 -6.874,-4.213 0.366,-4.853 4.792,-2.704 7.497,-3.313z"/>
  <path class="fil4" d="M-1345.608 93.429c-2.227,0.054 -5.493,0.164 -5.621,-3.605 -0.147,-4.37 3.468,-3.903 6.43,-3.936 2.847,-0.033 5.996,-0.126 5.888,3.839 -0.105,3.894 -3.286,3.718 -6.697,3.702z"/>
  <path class="fil4" d="M-1303.796 474.636c-0.009,2.802 -1.665,3.493 -3.138,4.377 -11.217,6.73 -22.463,13.412 -33.61,20.255 -2.921,1.793 -5.382,1.838 -8.326,0.033 -10.968,-6.727 -22.045,-13.279 -33.081,-19.897 -2.481,-1.487 -5.282,-3.231 -3.192,-6.475 1.838,-2.856 4.557,-1.274 6.822,0.075 9.759,5.812 19.633,11.445 29.189,17.575 3.298,2.116 5.491,1.818 8.606,-0.127 9.818,-6.132 19.849,-11.926 29.811,-17.828 1.678,-0.994 3.416,-1.97 5.387,-0.644 1.187,0.798 1.513,2.014 1.532,2.656z"/>
  <path class="fil4" d="M-900.684 897.237c4.863,0.45 8.96,-1.364 12.574,-4.248 6.496,-5.184 5.662,-12.195 -1.752,-15.786 -1.354,-0.656 -2.779,-1.211 -4.025,-2.035 -4.964,-3.281 -9.124,-3.129 -12.158,2.572 -2.281,4.287 -5.367,3.84 -9.154,1.932 -7.905,-3.982 -13.926,-9.908 -19.027,-16.998 -1.957,-2.721 -2.141,-4.909 0.419,-7.3 3.667,-3.425 3.844,-7.332 1.453,-11.652 -1.24,-2.241 -2.02,-4.733 -3.073,-7.083 -2.546,-5.678 -8.38,-6.787 -12.824,-2.279 -5.243,5.32 -6.822,11.749 -5.061,18.991 2.16,8.879 7.772,15.72 13.654,22.259 10.478,11.648 22.937,19.961 38.974,21.627zm-71.523 20.92c0.596,-2.093 0.813,-3.104 1.169,-4.063 3.668,-9.896 3.547,-18.758 -1.076,-29.219 -11.403,-25.805 0.061,-57.309 23.627,-70.409 27.502,-15.289 58.341,-8.875 76.946,16.003 16.337,21.845 13.55,54.38 -6.383,74.53 -15.815,15.986 -42.318,21.788 -62.569,12.292 -7.897,-3.703 -14.754,-4.413 -22.543,-1.396 -2.553,0.989 -5.351,1.344 -9.171,2.262z"/>
  <path class="fil4" d="M-1540.436 1051.942c4.735,-0.003 9.485,0.227 14.201,-0.073 4.068,-0.259 5.863,0.713 5.254,5.256 -1.491,11.118 -3.049,22.18 -9.279,31.878 -6.55,10.197 -13.824,10.328 -20.252,0.127 -6.478,-10.278 -8.429,-21.916 -9.298,-33.82 -0.234,-3.204 1.4,-3.45 3.88,-3.397 5.163,0.11 10.329,0.033 15.494,0.029z"/>
  <path class="fil4" d="M-1540.828 1044.406c-5.145,0 -10.295,-0.133 -15.434,0.054 -2.831,0.102 -3.77,-0.82 -3.552,-3.668 0.921,-12.064 2.856,-23.863 9.633,-34.208 5.952,-9.086 13.189,-9.12 19.283,-0.198 7.14,10.453 8.803,22.528 9.972,34.744 0.311,3.26 -1.432,3.364 -3.824,3.326 -5.358,-0.085 -10.718,-0.026 -16.078,-0.026l0 -0.024z"/>
  <path class="fil4" d="M-1557.05 1093.211c-16.039,-4.808 -30.273,-22.146 -31.539,-37.11 -0.253,-2.988 0.379,-4.617 3.701,-4.145 0.212,0.03 0.43,0.008 0.645,0.01 5.163,0.035 11.466,-1.738 15.175,0.602 3.862,2.435 1.794,9.419 2.808,14.349 1.827,8.881 4.013,17.59 9.21,26.294z"/>
  <path class="fil4" d="M-1524.326 1094.235c7.605,-13.203 10.072,-25.909 10.952,-38.986 0.169,-2.51 0.968,-3.4 3.441,-3.325 4.292,0.131 8.619,0.344 12.88,-0.047 4.518,-0.414 5.134,1.677 4.324,5.291 -3.821,17.06 -13.531,29.237 -31.597,37.067z"/>
  <path class="fil4" d="M-1523.498 1002.588c16.949,7.3 26.698,19.151 30.673,35.867 0.921,3.871 0.744,6.827 -4.692,6.015 -5.036,-0.752 -11.651,2.171 -14.808,-1.114 -2.728,-2.837 -1.507,-9.322 -2.377,-14.132 -0.798,-4.409 -1.792,-8.822 -3.187,-13.073 -1.388,-4.23 -3.383,-8.26 -5.609,-13.563z"/>
  <path class="fil4" d="M-1558.311 1003.627c-5.694,11.916 -8.462,24.299 -9.052,37.187 -0.128,2.781 -1.08,3.738 -3.838,3.62 -4.065,-0.175 -8.176,-0.322 -12.208,0.091 -5.123,0.524 -5.744,-1.781 -4.794,-5.995 3.799,-16.861 13.821,-28.408 29.892,-34.903z"/>
  <path class="fil4" d="M-1363.459 845.734c0.042,-10.639 8.29,-18.834 18.792,-18.671 10.247,0.158 18.341,8.311 18.43,18.563 0.089,10.324 -8.64,18.958 -18.973,18.767 -10.212,-0.188 -18.289,-8.448 -18.249,-18.659z"/>
  <path class="fil4" d="M-1540.952 -3.714c-14.179,0.007 -28.359,-0.073 -42.537,0.062 -3.594,0.034 -4.686,-0.493 -3.923,-4.655 4.195,-22.873 23.096,-39.458 46.209,-40.019 21.699,-0.526 41.858,15.226 47.013,36.737 1.874,7.815 1.825,7.872 -6.157,7.87 -13.535,-0.004 -27.07,-0.001 -40.605,0.005z"/>
  <path class="fil4" d="M-1518.198 -78.528c-0.089,12.345 -9.792,22.199 -21.956,22.299 -12.679,0.105 -22.992,-10.328 -22.7,-22.964 0.283,-12.235 10.195,-21.973 22.392,-21.999 12.421,-0.026 22.354,10.085 22.264,22.664z"/>
  <path class="fil4" d="M-1499.495 474.661c-1.368,-4.26 -4.182,-3.568 -7.384,-1.656 -9.774,5.835 -19.661,11.488 -29.291,17.55 -3.41,2.147 -5.843,2.011 -9.211,-0.136 -9.584,-6.111 -19.447,-11.785 -29.213,-17.609 -2.395,-1.429 -5.074,-2.264 -6.682,0.726 -1.426,2.652 0.63,4.289 2.802,5.584 11.435,6.814 22.876,13.617 34.258,20.52 2.435,1.477 4.563,1.838 7.136,0.265 11.544,-7.057 23.157,-14.004 34.757,-20.97 1.526,-0.916 2.925,-1.856 2.828,-4.274zm-41.458 56.644c-14.422,-0.001 -28.846,-0.128 -43.266,0.08 -4.001,0.058 -5.171,-1.241 -5.137,-5.174 0.166,-19.152 0.138,-38.306 0.009,-57.459 -0.024,-3.528 0.959,-4.933 4.704,-4.917 29.489,0.129 58.98,0.131 88.469,0.055 3.322,-0.009 4.504,1.057 4.483,4.438 -0.115,19.368 -0.149,38.738 0.031,58.104 0.039,4.177 -1.653,4.986 -5.38,4.943 -14.636,-0.168 -29.275,-0.069 -43.913,-0.07z"/>
  <path class="fil4" d="M-1582.658 302.863c13.982,-12.008 26.856,-22.99 39.623,-34.096 2.281,-1.983 3.665,-1.023 5.475,0.536 12.532,10.795 25.125,21.521 38.959,33.347 -8.429,-0.628 -8.221,4.227 -8.167,9.4 0.156,15.055 -0.088,30.114 0.156,45.168 0.07,4.267 -0.726,5.985 -5.512,5.913 -18.714,-0.283 -37.438,-0.316 -56.15,0.012 -5.139,0.09 -5.933,-1.719 -5.852,-6.281 0.27,-15.267 -0.062,-30.544 0.167,-45.812 0.079,-5.344 -1.146,-8.839 -8.699,-8.187z"/>
  <path class="fil4" d="M-1514.341 682.343c-10.908,0 -21.819,0.155 -32.722,-0.081 -3.967,-0.087 -6.301,1.269 -8.195,4.739 -5.191,9.509 -10.708,18.842 -17.031,29.877 -1.64,-26.526 -3.159,-51.088 -4.779,-77.29 21.741,14.3 42.422,27.902 63.103,41.504 -0.126,0.417 -0.251,0.834 -0.376,1.251z"/>
  <path class="fil4" d="M-1540.375 93.588c2.886,0.069 6.05,0.064 6.078,-3.806 0.028,-3.91 -3.141,-3.9 -6.026,-3.84 -2.986,0.062 -6.576,-0.388 -6.348,4.111 0.201,3.96 3.547,3.5 6.296,3.535zm0.147 74.913c-2.787,0.34 -7.115,-1.297 -7.461,3.482 -0.356,4.911 3.912,4.207 6.978,4.101 2.922,-0.102 7.171,1.269 7.253,-3.829 0.076,-4.69 -3.763,-3.582 -6.77,-3.754zm31.112 -37.416c0.008,14.187 -0.146,28.378 0.098,42.562 0.078,4.483 -1.532,6.126 -5.859,6.099 -17.201,-0.107 -34.404,-0.186 -51.605,-0.024 -4.413,0.041 -5.562,-2.006 -5.558,-5.841 0.033,-28.591 0.065,-57.182 -0.04,-85.773 -0.018,-4.803 1.938,-6.181 6.615,-6.112 16.338,0.242 32.686,0.277 49.022,-0.035 5.515,-0.104 7.612,1.347 7.446,7.208 -0.397,13.962 -0.128,27.942 -0.119,41.916z"/>
  <path class="fil4" d="M-1518.272 846.061c0.125,-12.549 -9.608,-22.593 -22.083,-22.789 -12.276,-0.193 -22.599,9.91 -22.737,22.252 -0.138,12.321 9.851,22.578 22.205,22.801 12.275,0.222 22.492,-9.837 22.615,-22.264zm9.052 5.513c-2.091,17.549 -7.771,36.954 -19.831,54.013 -6.55,9.263 -14.295,10.364 -20.634,2.441 -14.688,-18.359 -22.044,-39.879 -21.88,-63.154 0.123,-17.246 15.795,-30.107 32.231,-28.972 18.272,1.261 30.717,14.715 30.114,35.672z"/>
  <path class="fil1" d="M-1139.977 834.955c8.037,0.475 14.664,7.846 14.007,15.58 -0.679,8.007 -8.001,14.363 -15.828,13.743 -7.778,-0.615 -13.986,-7.577 -13.582,-15.23 0.434,-8.229 7.363,-14.569 15.403,-14.093z"/>
  <path class="fil2" d="M-1141 166.499c-2.026,-0.689 -5.754,0.923 -5.361,-3.303 0.365,-3.928 3.851,-2.368 6.05,-2.517 2.142,-0.146 5.388,-0.602 5.303,2.776 -0.094,3.75 -3.58,2.622 -5.992,3.044z"/>
  <path class="fil2" d="M-1140.491 95.043c1.771,0.476 4.565,0.081 4.454,3.149 -0.124,3.41 -3.039,2.991 -5.302,3.065 -2.294,0.075 -4.682,-0.59 -4.378,-3.342 0.286,-2.587 2.808,-2.834 5.226,-2.872z"/>
  <path class="fil2" d="M-689.538 1048.307c-7.091,4.071 -13.388,7.685 -20.326,11.668l0 -23.433c6.932,4.013 13.306,7.702 20.326,11.765z"/>
  <path class="fil2" d="M-1169.381 477.029c0.886,0.448 2.448,1.124 3.896,1.991 6.989,4.187 14.026,8.302 20.876,12.707 2.693,1.732 4.737,1.906 7.531,0.118 7.039,-4.505 14.28,-8.699 21.504,-12.907 2.088,-1.215 4.72,-3.694 6.725,-0.707 2.184,3.253 -1.37,4.313 -3.413,5.568 -8.039,4.935 -16.136,9.776 -24.21,14.656 -2.225,1.345 -4.228,2.527 -7.038,0.767 -8.902,-5.576 -17.962,-10.901 -26.974,-16.3 -1.545,-0.926 -3.034,-2.004 -2.622,-3.978 0.271,-1.298 1.484,-2.055 3.725,-1.915z"/>
  <path class="fil1" d="M-676.262 109.808c-0.213,-2.75 -1.428,-4.596 -4.232,-4.734 -2.915,-0.145 -4.964,1.044 -5,4.321 -0.034,3.14 1.779,4.766 4.725,4.738 2.673,-0.024 4.152,-1.772 4.507,-4.325zm-25.728 0.623c-11.399,-0.168 -20.579,8.723 -20.74,20.085 -0.159,11.313 8.774,20.645 20.047,20.942 10.963,0.29 20.719,-9.133 20.935,-20.219 0.217,-11.126 -9.04,-20.642 -20.242,-20.808zm-0.733 52.855c-5.808,0 -11.629,0.247 -17.421,-0.059 -8.224,-0.435 -13.638,-5.569 -14.327,-13.735 -1.049,-12.44 -1.063,-24.923 0.015,-37.36 0.697,-8.048 5.711,-12.815 13.865,-13.433 12.024,-0.911 24.074,-0.955 36.104,-0.055 8.665,0.649 14.124,5.631 14.477,14.268 0.482,11.808 0.492,23.663 0.061,35.475 -0.336,9.172 -6.173,14.398 -15.35,14.906 -3.006,0.167 -6.021,0.16 -9.033,0.192 -2.796,0.03 -5.594,0.006 -8.391,0.006l0 -0.205z"/>
  <path class="fil1" d="M-725.366 853.914c-0.012,2.99 0.56,5.539 1.878,7.767 6.633,11.212 15.334,20.027 28.216,23.911 3.605,1.087 7.071,1.339 10.635,-0.311 3.438,-1.591 5.854,-4.025 5.639,-7.819 -0.248,-4.38 -4.868,-4.067 -7.508,-5.877 -2.891,-1.984 -5.192,-1.004 -7.03,1.737 -1.274,1.9 -2.692,3.276 -5.308,1.926 -5.434,-2.803 -10.075,-6.478 -13.463,-11.611 -0.81,-1.226 -1.864,-2.63 -0.339,-4 4.887,-4.395 1.346,-8.722 -0.302,-12.808 -1.766,-4.375 -5.98,-4.874 -9.159,-1.355 -2.212,2.448 -3.481,5.381 -3.259,8.44zm-11.828 46.102c0.64,-2.614 0.896,-4.51 1.57,-6.243 1.823,-4.685 1.126,-8.679 -1.072,-13.388 -9.344,-20.017 0.553,-43.714 20.987,-51.581 19.498,-7.508 42.81,3.121 49.539,22.586 7.345,21.249 -4.256,43.713 -25.903,49.833 -6.914,1.955 -13.925,2.024 -20.907,-0.195 -11.534,-3.666 -11.554,-3.604 -24.214,-1.012z"/>
  <path class="fil1" d="M-900.684 897.237c-16.037,-1.666 -28.496,-9.979 -38.974,-21.627 -5.882,-6.539 -11.494,-13.38 -13.654,-22.259 -1.761,-7.242 -0.182,-13.671 5.061,-18.991 4.444,-4.508 10.278,-3.399 12.824,2.279 1.053,2.35 1.833,4.842 3.073,7.083 2.391,4.32 2.214,8.227 -1.453,11.652 -2.56,2.391 -2.376,4.579 -0.419,7.3 5.101,7.09 11.122,13.016 19.027,16.998 3.787,1.908 6.873,2.355 9.154,-1.932 3.034,-5.701 7.194,-5.853 12.158,-2.572 1.246,0.824 2.671,1.379 4.025,2.035 7.414,3.591 8.248,10.602 1.752,15.786 -3.614,2.884 -7.711,4.698 -12.574,4.248z"/>
  <path class="fil2" d="M-1499.495 474.661c0.097,2.418 -1.302,3.358 -2.828,4.274 -11.6,6.966 -23.213,13.913 -34.757,20.97 -2.573,1.573 -4.701,1.212 -7.136,-0.265 -11.382,-6.903 -22.823,-13.706 -34.258,-20.52 -2.172,-1.295 -4.228,-2.932 -2.802,-5.584 1.608,-2.99 4.287,-2.155 6.682,-0.726 9.766,5.824 19.629,11.498 29.213,17.609 3.368,2.147 5.801,2.283 9.211,0.136 9.63,-6.062 19.517,-11.715 29.291,-17.55 3.202,-1.912 6.016,-2.604 7.384,1.656z"/>
  <path class="fil2" d="M-1540.228 168.501c3.007,0.172 6.846,-0.936 6.77,3.754 -0.082,5.098 -4.33,3.727 -7.253,3.829 -3.066,0.107 -7.334,0.81 -6.978,-4.101 0.346,-4.779 4.674,-3.142 7.461,-3.482z"/>
  <path class="fil2" d="M-1540.369 93.592c-2.756,-0.039 -6.101,0.421 -6.302,-3.539 -0.228,-4.499 3.362,-4.05 6.348,-4.111 2.885,-0.06 6.054,-0.07 6.026,3.84 -0.029,3.87 -3.192,3.875 -6.072,3.81z"/>
  <path class="fil2" d="M-1525.964 845.879c0.068,-8.274 -6.24,-14.713 -14.534,-14.837 -7.997,-0.119 -14.973,6.683 -14.999,14.623 -0.025,7.896 6.877,14.882 14.767,14.948 8.056,0.068 14.698,-6.561 14.766,-14.734zm7.692 0.182c-0.123,12.427 -10.34,22.485 -22.615,22.264 -12.354,-0.223 -22.343,-10.48 -22.205,-22.801 0.138,-12.342 10.461,-22.445 22.737,-22.252 12.475,0.196 22.208,10.24 22.083,22.789z"/>
  <path class="fil4" d="M-715.344 130.99c0.038,7.211 5.789,13.009 12.941,13.045 7.115,0.036 13.143,-5.837 13.258,-12.917 0.12,-7.368 -6.038,-13.501 -13.434,-13.381 -7.248,0.118 -12.805,5.886 -12.765,13.253zm13.355 -20.559c11.2,0.166 20.458,9.682 20.241,20.808 -0.216,11.086 -9.972,20.509 -20.935,20.219 -11.273,-0.298 -20.206,-9.629 -20.047,-20.942 0.16,-11.362 9.341,-20.253 20.741,-20.085z"/>
  <path class="fil4" d="M-676.262 109.808c-0.355,2.553 -1.834,4.301 -4.507,4.325 -2.946,0.028 -4.759,-1.598 -4.725,-4.738 0.036,-3.277 2.085,-4.466 5,-4.321 2.804,0.138 4.019,1.984 4.232,4.734z"/>
  <path class="fil4" d="M-725.366 853.914c-0.222,-3.059 1.047,-5.992 3.259,-8.44 3.179,-3.519 7.393,-3.02 9.159,1.355 1.648,4.086 5.189,8.413 0.302,12.808 -1.525,1.37 -0.471,2.774 0.339,4 3.388,5.133 8.029,8.808 13.463,11.611 2.616,1.35 4.034,-0.026 5.308,-1.926 1.838,-2.741 4.139,-3.721 7.03,-1.737 2.64,1.81 7.26,1.497 7.508,5.877 0.215,3.794 -2.201,6.228 -5.639,7.819 -3.564,1.65 -7.03,1.398 -10.635,0.311 -12.882,-3.884 -21.583,-12.699 -28.216,-23.911 -1.318,-2.228 -1.89,-4.777 -1.878,-7.767z"/>
  <g id="_2008320174480">
   <path class="fil1" d="M86.425 49.864c-0.008,0 -0.016,0 -0.024,-0.001 0,-6.16 0.19,-12.328 -0.042,-18.48 -0.414,-10.982 -6.301,-16.926 -17.202,-17.385 -12.593,-0.531 -25.198,-0.533 -37.791,-0.003 -10.961,0.462 -17.015,6.347 -17.279,17.288 -0.301,12.452 -0.322,24.922 -0.019,37.373 0.275,11.28 6.086,17.269 17.405,17.646 12.452,0.416 24.939,0.407 37.392,0.004 11.531,-0.374 17.083,-6.324 17.52,-17.962 0.231,-6.152 0.04,-12.32 0.04,-18.48zm8.058 0.042c0,6.574 0.346,13.17 -0.069,19.717 -1.018,16.064 -11.143,23.856 -23.664,24.55 -13.681,0.757 -27.357,0.714 -41.042,0.011 -11.88,-0.611 -22.597,-8.099 -23.564,-23.712 -0.864,-13.939 -1.228,-27.972 0.188,-41.866 1.392,-13.667 8.903,-21.149 22.512,-22.375 14.183,-1.278 28.516,-1.271 42.699,-0.013 14.241,1.263 22.128,10.266 22.898,24.788 0.333,6.283 0.056,12.598 0.056,18.899 -0.005,0 -0.01,0 -0.014,0.001z"/>
   <path class="fil4" d="M79.259 26.405c-0.232,-3.165 -1.869,-5.164 -5.068,-5.243 -3.138,-0.078 -5.11,1.64 -5.344,4.896 -0.227,3.152 2.03,5.489 5.2,5.437 3.297,-0.054 4.851,-1.961 5.212,-5.09zm-28.984 0.862c-12.399,-0.02 -22.832,10.28 -22.904,22.612 -0.075,12.695 10.194,23.116 22.785,23.123 12.631,0.007 22.945,-10.355 22.907,-23.014 -0.036,-12.368 -10.4,-22.701 -22.788,-22.721zm36.151 22.597c0,6.16 0.19,12.328 -0.041,18.48 -0.437,11.638 -5.989,17.588 -17.52,17.962 -12.452,0.404 -24.94,0.411 -37.392,-0.004 -11.319,-0.377 -17.13,-6.366 -17.405,-17.646 -0.303,-12.451 -0.282,-24.921 0.019,-37.373 0.265,-10.941 6.318,-16.826 17.279,-17.288 12.593,-0.53 25.198,-0.528 37.791,0.003 10.901,0.46 16.788,6.403 17.202,17.385 0.232,6.152 0.042,12.32 0.042,18.48 0.008,0.001 0.016,0.001 0.025,0.001z"/>
   <path class="fil1" d="M65.022 50.039c-0.049,-8.223 -6.68,-14.681 -15.012,-14.62 -8.227,0.06 -14.758,6.768 -14.619,15.017 0.134,7.999 6.787,14.517 14.812,14.511 8.227,-0.006 14.867,-6.687 14.819,-14.908zm-14.747 -22.772c12.388,0.02 22.752,10.353 22.788,22.721 0.038,12.659 -10.276,23.02 -22.907,23.014 -12.591,-0.007 -22.86,-10.428 -22.785,-23.123 0.072,-12.332 10.505,-22.632 22.904,-22.612z"/>
   <path class="fil1" d="M79.259 26.405c-0.361,3.129 -1.915,5.036 -5.212,5.09 -3.17,0.052 -5.427,-2.285 -5.2,-5.437 0.234,-3.256 2.206,-4.974 5.344,-4.896 3.199,0.079 4.836,2.078 5.068,5.243z"/>
   <path class="fil4" d="M65.022 50.039c0.048,8.221 -6.592,14.902 -14.819,14.908 -8.025,0.006 -14.678,-6.512 -14.812,-14.511 -0.139,-8.249 6.392,-14.957 14.619,-15.017 8.332,-0.061 14.963,6.397 15.012,14.62z"/>
  </g>
  <path class="fil4" d="M-1525.964 845.879c-0.068,8.173 -6.71,14.802 -14.766,14.734 -7.89,-0.066 -14.792,-7.052 -14.767,-14.948 0.026,-7.94 7.002,-14.742 14.999,-14.623 8.294,0.124 14.602,6.563 14.534,14.837z"/>
  <path class="fil1" d="M-715.344 130.99c-0.04,-7.367 5.517,-13.135 12.765,-13.253 7.396,-0.12 13.554,6.013 13.434,13.381 -0.115,7.08 -6.143,12.953 -13.258,12.917 -7.152,-0.036 -12.903,-5.834 -12.941,-13.045z"/>
  <path class="fil6" d="M-658.162 500.258c-1.709,14.434 -7.693,26.598 -21.057,33.445 -10.537,5.399 -21.329,5.718 -31.133,-3.63 -2.549,12.506 -6.215,23.73 -12.46,34.072 -1.655,-0.373 -3.263,-0.958 -4.771,-1.739l0 -0.006c-2.673,-15.131 2.199,-28.679 5.369,-42.427 1.513,-6.54 2.974,-12.826 1.206,-19.608 -1.23,-4.707 0.012,-9.438 2.531,-13.613 2.827,-4.665 6.978,-7.297 12.489,-5.588 5.635,1.75 6.487,6.623 5.54,11.549 -1.259,6.516 -3.08,12.926 -4.813,19.342 -1.147,4.246 -0.94,8.131 2.507,11.218 3.519,3.145 7.706,3.577 12.081,2.276 4.961,-1.478 8.651,-4.677 11.389,-8.988 4.293,-6.747 5.843,-14.203 5.742,-22.121 -0.166,-13.015 -6.291,-22.347 -17.598,-26.551 -12.637,-4.695 -26.804,-1.407 -35.444,8.225 -8.214,9.154 -10.2,22.394 -4.252,32.931 2.059,3.643 1.899,6.806 1.082,10.432 -0.786,3.458 -2.382,4.198 -5.328,2.075 -3.973,-2.856 -6.486,-6.783 -8.485,-11.117 -9.431,-20.436 1.739,-49.547 30.542,-55.532 30.808,-6.404 58.678,13.169 54.863,45.355z"/>
  <g id="_2008320216096">
   <path class="fil0" d="M-54.821 -81.129c-0.317,20.993 -14.21,38.408 -34.284,43.255 -1.04,0.253 -1.774,0.343 -2.279,0.2 -0.795,-0.226 -1.013,-1.024 -0.934,-2.682 0.196,-4.101 0.053,-8.221 0.049,-12.33 -0.004,-4.113 0.135,-8.233 -0.057,-12.335 -0.109,-2.316 0.524,-3.013 2.915,-3.039 7.251,-0.072 7.251,-0.188 8.584,-7.258 0.075,-0.403 0.207,-0.794 0.32,-1.186 1.024,-3.529 0.203,-4.96 -3.944,-4.776 -8.801,0.385 -8.812,0.136 -7.645,-8.621 0.637,-4.798 2.467,-6.568 8.214,-6.338 3.951,0.158 4.637,-1.251 4.505,-4.772 -0.264,-7.024 -0.076,-7.032 -7.408,-7.164 -10.757,-0.195 -16.681,3.19 -18.847,10.855 -1.209,4.282 -1.077,8.7 -0.858,13.065 0.131,2.652 -0.818,3.152 -3.266,3.148 -8.131,-0.003 -7.939,0.103 -8.233,8.407 -0.132,3.748 0.889,4.945 4.731,4.776 6.7,-0.291 6.711,-0.046 6.711,6.813 0,6.99 -0.079,13.98 0.041,20.97 0.027,1.495 -0.15,2.249 -0.877,2.467l-0.004 0c-0.459,0.14 -1.13,0.064 -2.102,-0.162 -33.406,-7.837 -44.72,-48.257 -23.689,-72.199 12.078,-13.754 31.508,-19.355 48.871,-13.035 17.66,6.429 29.761,23.641 29.486,41.941z"/>
   <path class="fil6" d="M-80.507 -76.504c-0.113,0.392 -0.245,0.784 -0.321,1.186 -1.332,7.069 -1.332,7.186 -8.583,7.258 -2.391,0.026 -3.024,0.723 -2.914,3.039 0.191,4.102 0.052,8.222 0.056,12.335 0.003,4.109 0.147,8.229 -0.049,12.331 -0.079,1.657 0.139,2.455 0.934,2.681 -5.284,0.896 -10.715,0.9 -15.999,0 0.727,-0.218 0.904,-0.972 0.877,-2.467 -0.12,-6.99 -0.041,-13.98 -0.041,-20.97 0,-6.859 -0.012,-7.103 -6.711,-6.814 -3.842,0.17 -4.863,-1.028 -4.731,-4.775 0.294,-8.305 0.102,-8.41 8.233,-8.407 2.448,0.004 3.397,-0.496 3.266,-3.148 -0.219,-4.365 -0.351,-8.783 0.858,-13.065 2.166,-7.665 8.09,-11.05 18.847,-10.855 7.332,0.132 7.144,0.14 7.408,7.164 0.131,3.521 -0.554,4.93 -4.505,4.772 -5.747,-0.23 -7.577,1.54 -8.214,6.338 -1.167,8.757 -1.156,9.006 7.646,8.621 4.146,-0.184 4.967,1.247 3.943,4.776z"/>
  </g>
 </g>
</svg>
